<?xml version="1.0" standalone="no"?><!DOCTYPE svg PUBLIC "-//W3C//DTD SVG 1.1//EN" "http://www.w3.org/Graphics/SVG/1.1/DTD/svg11.dtd"><svg class="icon" width="200px" height="200.00px" viewBox="0 0 1024 1024" version="1.1" xmlns="http://www.w3.org/2000/svg"><path fill="#333333" d="M656 256.032V288h-46.256a206.4 206.4 0 0 0-149.52-64h-105.248c-23.568 0-43.904 12.928-54.976 31.968l-79.936 137.728c-19.936 27.744-14.56 64.992 11.616 86.304l12.992 13.008c-15.552 11.696-25.792 30.144-25.792 50.992 0 35.2 28.8 64 64 64h112.48l-22.672 22.624c-50.032 50.048-45.248 131.744-14.512 162.56a23.2 23.2 0 0 0 32.912 0.032l219.232-219.232-0.288-0.032A209.232 209.232 0 0 0 633.792 544H656v32.032h192v-320H656zM656 512h-39.52c-26.64 40.736-0.48 11.072-239.872 250.448a95.36 95.36 0 0 1 18.688-109.184c29.792-29.728 8.8-8.752 77.392-77.232H282.88c-17.648 0-32-14.4-32-32.032 0-9.92 4.752-19.184 13.04-25.424l29.44-22.144c-1.808-1.824-39.488-39.616-41.472-41.248-15.504-12.624-14.224-28.048-4.16-45.44l79.92-137.696A31.472 31.472 0 0 1 354.96 256h105.264c48.08 0 92.96 19.232 126.4 54.128l9.44 9.872H656v192z m64 32.032h-32v-256h32v256z m96 0h-64v-256h64v256z"  /></svg>