<?xml version="1.0" standalone="no"?><!DOCTYPE svg PUBLIC "-//W3C//DTD SVG 1.1//EN" "http://www.w3.org/Graphics/SVG/1.1/DTD/svg11.dtd"><svg t="1485062559792" class="icon" style="" viewBox="0 0 1024 1024" version="1.1" xmlns="http://www.w3.org/2000/svg" p-id="2495" xmlns:xlink="http://www.w3.org/1999/xlink" width="200" height="200"><defs><style type="text/css"></style></defs><path d="M761.6 140.8 761.6 140.8C736 128 704 134.4 684.8 153.6c-25.6 25.6-25.6 64 0 89.6C691.2 249.6 697.6 249.6 704 256l0 0c76.8 57.6 128 153.6 128 256 0 179.2-140.8 320-320 320s-320-140.8-320-320c0-102.4 51.2-198.4 128-256l0 0c25.6-25.6 25.6-64 0-89.6-25.6-25.6-64-25.6-89.6 0 0 0 0 0 0 0C128 249.6 64 371.2 64 512c0 249.6 198.4 448 448 448s448-198.4 448-448C960 358.4 883.2 224 761.6 140.8z" p-id="2496" fill="#dbdbdb"></path><path d="M512 576 512 576C473.6 576 448 550.4 448 512L448 128c0-32 25.6-64 64-64l0 0c32 0 64 25.6 64 64l0 384C576 550.4 544 576 512 576z" p-id="2497" fill="#dbdbdb"></path></svg>