<?xml version="1.0" standalone="no"?><!DOCTYPE svg PUBLIC "-//W3C//DTD SVG 1.1//EN" "http://www.w3.org/Graphics/SVG/1.1/DTD/svg11.dtd"><svg class="icon" width="200px" height="200.00px" viewBox="0 0 1024 1024" version="1.1" xmlns="http://www.w3.org/2000/svg"><path fill="#333333" d="M824.32 544.032l-13.008-13.008c15.552-11.712 25.808-30.144 25.808-50.992 0-35.2-28.8-64-64-64h-112.48l22.656-22.624c50.048-50.048 45.248-131.744 14.528-162.56a23.2 23.2 0 0 0-32.928-0.032L445.664 450.048l0.288 0.032a209.232 209.232 0 0 0-23.744 29.952H400V448H208v320h192v-31.968h46.24a206.4 206.4 0 0 0 149.536 64h105.248c23.552 0 43.904-12.928 54.976-31.968l79.936-137.728c19.92-27.744 14.544-64.992-11.616-86.304zM304 736h-64V480h64v256z m64 0h-32V480h32v256z m440.256-121.728l-79.92 137.712a31.456 31.456 0 0 1-27.312 16.048h-105.248c-48.08 0-92.976-19.232-126.4-54.144l-9.456-9.856H400v-192h39.52c26.64-40.752 0.48-11.072 239.872-250.448a95.36 95.36 0 0 1-18.704 109.184c-29.776 29.728-8.8 8.72-77.392 77.216 190.032 0 0 0.016 189.824 0.016 17.648 0 32 14.384 32 32.032 0 9.92-4.752 19.184-13.04 25.424l-29.44 22.144c1.808 1.808 39.488 39.616 41.472 41.232 15.488 12.64 14.208 28.064 4.16 45.44z"  /></svg>